 http://imageshack.us/m/41/1269/10080404215610801065158.jpg

Country.......: USA
Genre.........: Comedy
Date release..: 30.07.2010 [World]
Director......: Jay Roach
Writers.......: David Guion, Michael Handelman
Duration......: 114 min.
More..........: http://www.imdb.com/title/tt0427152
Trailer.......: http://www.imdb.com/video/imdb/vi3797747481
Trailer.......:

Pilot :
When he finds out that his work superiors host a dinner celebrating the idiocy of their guests, a rising executive questions it when he's invited, just as he befriends a man who would be the perfect guest. 

Cats :
Steve Carell   	 ...  	Barry
Paul Rudd 	... 	Tim
Zach Galifianakis 	... 	Therman
Jemaine Clement 	... 	Kieran
Stephanie Szostak 	... 	Julie
Lucy Punch 	... 	Darla
Bruce Greenwood 	... 	Lance Fender
David Walliams 	... 	Mueller
Ron Livingston 	... 	Caldwell
Larry Wilmore 	... 	Williams
Kristen Schaal 	... 	Susana
P.J. Byrne 	... 	Davenport
Andrea Savage 	... 	Robin
Nick Kroll 	... 	Josh
Randall Park 	... 	Henderson 

Data Technical :
!!! SAMPLE !!!
Audio.....: English
Subtitles.: English .srt, Portugues .srt, Polish .txt
Format                           : AVI
Format/Info                      : Audio Video Interleave
File size                        : 702 MiB
Duration                         : 1h 54mn
Overall bit rate                 : 860 Kbps
Writing application              : VirtualDubMod 1.5.4.1 (build 2178/release)
Writing library                  : VirtualDubMod build 2178/release
Video
ID                               : 0
Format                           : MPEG-4 Visual
Format profile                   : Advanced Simple@L5
Format settings, BVOP            : Yes
Format settings, QPel            : No
Format settings, GMC             : No warppoints
Format settings, Matrix          : Default (H.263)
Muxing mode                      : Packed bitstream
Codec ID                         : DX50
Codec ID/Hint                    : DivX 5
Duration                         : 1h 54mn
Bit rate                         : 738 Kbps
Width                            : 608 pixels
Height                           : 336 pixels
Display aspect ratio             : 16:9
Frame rate                       : 23.976 fps
Color space                      : YUV
Chroma subsampling               : 4:2:0
Bit depth                        : 8 bits
Scan type                        : Progressive
Bits/(Pixel*Frame)               : 0.151
Stream size                      : 603 MiB (86%)
Writing library                  : XviD 1.2.1 (UTC 2008-12-04)
Audio
ID                               : 1
Format                           : MPEG Audio
Format version                   : Version 1
Format profile                   : Layer 3
Mode                             : Joint stereo
Codec ID                         : 55
Codec ID/Hint                    : MP3
Duration                         : 1h 54mn
Bit rate mode                    : Constant
Bit rate                         : 112 Kbps
Channel(s)                       : 2 channels
Sampling rate                    : 44.1 KHz
Video delay                      : 26ms
Stream size                      : 91.4 MiB (13%)
Alignment                        : Split accross interleaves
Interleave, duration             : 42 ms (1.00 video frame)
Interleave, preload duration     : 500 ms
Writing library                  : LAME3.92

Screen : 
http://imageshack.us/m/846/5977/dinnerforschmucks2010s1.jpg 
http://img850.imageshack.us/img850/5504/dinnerforschmucks2010s2.jpg 
http://imageshack.us/m/202/8601/dinnerforschmucks2010s3.jpg 
http://imageshack.us/m/695/7469/dinnerforschmucks2010s4.jpg 
http://imageshack.us/m/694/3139/dinnerforschmucks2010s5.jpg